<svg id="Layer_1" data-name="Layer 1" xmlns="http://www.w3.org/2000/svg" viewBox="0 0 132.96 45.3"><defs><style>.cls-1{fill:#35404b;}.cls-2{fill:#00b5ef;}.cls-3{fill:#bdecfb;}.cls-4{fill:#949aa0;}</style></defs><title>snowstorm</title><path class="cls-1" d="M1.53,23.71l19-9.71,18.94,9.71A2.67,2.67,0,0,1,41,26.07V21.36A2.69,2.69,0,0,0,39.42,19L20.48,9.3,1.53,19A2.69,2.69,0,0,0,0,21.36v4.71A2.67,2.67,0,0,1,1.53,23.71Z"/><path class="cls-1" d="M1.53,30.57l19-9.71,18.94,9.71A2.69,2.69,0,0,1,41,32.93v-4.7a2.67,2.67,0,0,0-1.53-2.36L20.48,16.16,1.53,25.87A2.67,2.67,0,0,0,0,28.23v4.7A2.69,2.69,0,0,1,1.53,30.57Z"/><path class="cls-2" d="M39.42,30.89l-18.94,9.7L1.53,30.89A2.69,2.69,0,0,1,0,28.53v4.7a2.69,2.69,0,0,0,1.53,2.36l19,9.71,18.94-9.71A2.69,2.69,0,0,0,41,33.23v-4.7A2.69,2.69,0,0,1,39.42,30.89Z"/><path class="cls-2" d="M39.42,24.06,20.48,33.77,1.53,24.06A2.67,2.67,0,0,1,0,21.7v4.71a2.69,2.69,0,0,0,1.53,2.36l19,9.7,18.94-9.7A2.69,2.69,0,0,0,41,26.41V21.7A2.67,2.67,0,0,1,39.42,24.06Z"/><path class="cls-1" d="M1.53,16.84l19-9.7,18.94,9.7A2.69,2.69,0,0,1,41,19.2V14.5a2.69,2.69,0,0,0-1.53-2.36L20.48,2.43,1.53,12.14A2.69,2.69,0,0,0,0,14.5v4.7A2.69,2.69,0,0,1,1.53,16.84Z"/><path class="cls-2" d="M39.42,17.24,20.48,27,1.53,17.24A2.69,2.69,0,0,1,0,14.88v4.7a2.68,2.68,0,0,0,1.53,2.36l19,9.71,18.94-9.71A2.68,2.68,0,0,0,41,19.58v-4.7A2.69,2.69,0,0,1,39.42,17.24Z"/><path class="cls-1" d="M54.42,23H55a.27.27,0,0,0,.29-.3V14.62h1.19l4.1,6c.34.51.77,1.3.77,1.3h0a12.38,12.38,0,0,1-.1-1.3V15.49c0-.61.25-.87.85-.87h1.31v1.16h-.56a.26.26,0,0,0-.29.3v8.07H61.39l-4.11-6c-.34-.52-.76-1.3-.76-1.3h0s.07.77.07,1.3v5.16c0,.61-.24.87-.83.87H54.42Z"/><path class="cls-1" d="M74.39,16.08c-.06-.24-.21-.3-.44-.3h-.2V14.62h.75c.65,0,1,.14,1.13.79l1.43,6.12c.11.51.18,1,.18,1h0a8.88,8.88,0,0,1,.22-1l1.85-6.88h1.18l1.72,6.88c.13.53.2,1,.2,1h0s.06-.5.17-1l1.45-6.12c.16-.65.47-.79,1.13-.79H86v1.16h-.2a.38.38,0,0,0-.44.3l-2,8.07H81.77l-1.57-6c-.15-.62-.26-1.31-.26-1.31h0s-.13.69-.3,1.3l-1.68,6H76.42Z"/><path class="cls-1" d="M97.28,15.78H95.85a.27.27,0,0,0-.29.3v.17H94.4v-.82c0-.6.19-.81.78-.81h5.51c.59,0,.78.21.78.81v.82h-1.16v-.17a.26.26,0,0,0-.29-.3H98.59v8.37H97.28Z"/><path class="cls-1" d="M106.13,14.62c2.67,0,4.32,2.05,4.32,4.7s-1.65,4.83-4.32,4.83-4.31-2.12-4.31-4.83S103.47,14.62,106.13,14.62Zm0,8.3c1.87,0,3-1.57,3-3.6s-1.09-3.48-3-3.48-2.95,1.51-2.95,3.48S104.26,22.92,106.13,22.92Z"/><path class="cls-1" d="M112.08,15.78h-.85V14.62h4a2.61,2.61,0,0,1,2.75,2.8,2.43,2.43,0,0,1-1.66,2.52v0a1.1,1.1,0,0,1,.4.44l1.11,2.28c.13.28.34.31.65.31h.17v1.16H118c-.72,0-1-.1-1.28-.72l-1.25-2.56c-.24-.45-.41-.51-.92-.51h-1.2v3.79h-1.31Zm3,3.42a1.54,1.54,0,0,0,1.58-1.73,1.49,1.49,0,0,0-1.56-1.69h-1.72V19.2Z"/><path class="cls-1" d="M119.81,23h.45c.18,0,.27-.11.29-.3l.62-8.07h1.35l2.17,5.05c.22.51.45,1.2.45,1.2h0s.23-.69.46-1.2l2.17-5.05h1.34l.63,8.07c0,.19.1.3.28.3h.44v1.16h-1.17c-.58,0-.79-.26-.83-.87l-.38-5c0-.56,0-1.4,0-1.4h0a13.9,13.9,0,0,1-.49,1.4l-1.86,4.18h-1.1l-1.87-4.18c-.22-.5-.5-1.41-.5-1.41h0s0,.85,0,1.41l-.36,5c0,.61-.25.87-.85.87h-1.17Z"/><path class="cls-1" d="M68.78,14.62c2.67,0,4.32,2.05,4.32,4.7s-1.65,4.83-4.32,4.83S64.47,22,64.47,19.32,66.12,14.62,68.78,14.62Zm0,8.3c1.87,0,3-1.57,3-3.6s-1.09-3.48-3-3.48-3,1.51-3,3.48S66.91,22.92,68.78,22.92Z"/><path class="cls-1" d="M47.49,21.76A3.74,3.74,0,0,0,50,22.91a1.54,1.54,0,0,0,1.73-1.42c0-2-4.89-1.7-4.89-4.68,0-1.43,1.34-2.56,3.24-2.56,1.08,0,2.89.46,2.89,1.76v.79H51.68v-.45c0-.5-.76-.87-1.57-.87-1.09,0-1.77.57-1.77,1.29,0,1.94,4.87,1.51,4.87,4.65,0,1.47-1.2,2.73-3.21,2.73a4.63,4.63,0,0,1-3.36-1.43Z"/><path class="cls-1" d="M87.64,21.76a3.64,3.64,0,0,0,2.48,1.15,1.52,1.52,0,0,0,1.7-1.42c0-2-4.78-1.7-4.78-4.68,0-1.43,1.3-2.56,3.17-2.56,1.05,0,2.82.46,2.82,1.76v.79H91.74v-.45c0-.5-.75-.87-1.53-.87-1.07,0-1.74.57-1.74,1.29,0,1.94,4.77,1.51,4.77,4.65a2.85,2.85,0,0,1-3.15,2.73,4.47,4.47,0,0,1-3.28-1.43Z"/><rect class="cls-3" x="47.05" y="27.03" width="83.84" height="0.5"/><path class="cls-4" d="M47.49,30.25a.13.13,0,0,0-.15-.15H47v-.42h.5c.31,0,.44.13.44.43V31.4a2.13,2.13,0,0,1,0,.29h0A1.28,1.28,0,0,1,49.19,31c1,0,1.55.77,1.55,1.87a1.67,1.67,0,0,1-1.61,1.87A1.3,1.3,0,0,1,48,34.06h0s0,.12,0,.29v.32h-.47Zm1.61,4.07c.63,0,1.15-.53,1.15-1.44s-.47-1.43-1.13-1.43S48,31.88,48,32.89C48,33.61,48.33,34.32,49.1,34.32Z"/><path class="cls-4" d="M51.79,35.72c.31,0,.52-.25.66-.58l.21-.49-1.26-3a.22.22,0,0,0-.24-.16h-.07V31.1h.22c.32,0,.41.07.54.39l.92,2.22c.07.18.13.39.13.39h0a3.48,3.48,0,0,1,.12-.39l.88-2.22c.12-.32.23-.39.55-.39h.22v.42h-.07a.22.22,0,0,0-.25.16l-1.54,3.73a1.09,1.09,0,0,1-1,.75,1,1,0,0,1-.77-.35l.23-.36A.73.73,0,0,0,51.79,35.72Z"/><path class="cls-2" d="M57.28,33.68a1.84,1.84,0,0,0,1.29.61.91.91,0,0,0,1-.89c0-1.23-2.46-1-2.46-2.53a1.37,1.37,0,0,1,1.52-1.28c.49,0,1.35.21,1.35.86v.36H59.5v-.24c0-.3-.41-.52-.87-.52-.64,0-1,.38-1,.8,0,1.16,2.46.88,2.46,2.52a1.39,1.39,0,0,1-1.51,1.38A2.11,2.11,0,0,1,57,34Z"/><path class="cls-2" d="M60.69,34.23H61c.1,0,.15,0,.15-.16V29.68h.46l2.54,3.55c.17.25.41.66.41.66h0s0-.4,0-.66V30.11c0-.3.12-.43.43-.43h.52v.44h-.3a.14.14,0,0,0-.16.15v4.4h-.45L62,31.11c-.18-.24-.41-.64-.41-.64h0s0,.38,0,.64v3.12c0,.31-.13.44-.43.44h-.53Z"/><path class="cls-2" d="M68.6,29.59a2.53,2.53,0,0,1,2.54,2.55,2.54,2.54,0,1,1-5.08,0A2.52,2.52,0,0,1,68.6,29.59Zm0,4.69a2.07,2.07,0,0,0,2-2.14,2,2,0,1,0-4,0A2.06,2.06,0,0,0,68.6,34.28Z"/><path class="cls-2" d="M71.56,34.23h.26c.1,0,.15,0,.16-.16l.35-4.39h.5l1.32,2.9c.12.25.25.59.25.59h0s.13-.34.24-.59L76,29.68h.51l.35,4.39c0,.11,0,.16.15.16h.27v.44h-.48c-.31,0-.41-.13-.43-.44l-.24-3c0-.27,0-.69,0-.69h0a6.92,6.92,0,0,1-.26.69l-1.18,2.54h-.45L73,31.2c-.11-.25-.26-.71-.26-.71h0s0,.44,0,.71l-.23,3c0,.31-.13.44-.43.44h-.48Z"/><path class="cls-2" d="M78.16,30.12H77.7v-.44h2.85c.31,0,.44.13.44.43v.5h-.47v-.34a.14.14,0,0,0-.16-.15h-1.7v1.81h1.87v.44H78.66v1.7a.14.14,0,0,0,.16.16h1.75a.14.14,0,0,0,.16-.16v-.33h.46v.49c0,.31-.13.44-.44.44H78.6c-.31,0-.44-.13-.44-.44Z"/><path class="cls-2" d="M82.13,30.12h-.47v-.44h2a2.31,2.31,0,0,1,2.5,2.49,2.32,2.32,0,0,1-2.5,2.5H82.56c-.31,0-.43-.13-.43-.44Zm.65,4.11h.84a1.88,1.88,0,0,0,2-2.06,1.88,1.88,0,0,0-2-2.05h-1v3.95A.14.14,0,0,0,82.78,34.23Z"/><path class="cls-2" d="M88.69,34.23h.46V30.12h-.46v-.44h1.42v.44h-.47v4.11h.47v.44H88.69Z"/><path class="cls-2" d="M91.13,31.67a.13.13,0,0,0-.15-.15h-.3V31.1h.5c.3,0,.43.12.43.39v.17c0,.14,0,.25,0,.25h0A1.53,1.53,0,0,1,93,31c.89,0,1.2.51,1.2,1.39v1.69c0,.11,0,.16.15.16h.3v.42h-.5c-.31,0-.43-.13-.43-.44V32.52c0-.56-.09-1.05-.78-1.05a1.36,1.36,0,0,0-1.3,1,1.94,1.94,0,0,0,0,.49v1.71h-.49Z"/><path class="cls-2" d="M95.57,31.5H95.1v-.4h.48v-1h.47v1H97v.4h-.9v1.82c0,.83.54.94.81.94H97v.43h-.21a1.15,1.15,0,0,1-1.24-1.32Z"/><path class="cls-2" d="M99.34,31a1.49,1.49,0,0,1,1.5,1.65c0,.08,0,.24,0,.24H98.09a1.35,1.35,0,0,0,1.38,1.42,1.59,1.59,0,0,0,1.07-.44l.24.36a2,2,0,0,1-1.33.51,1.81,1.81,0,0,1-1.87-1.87A1.74,1.74,0,0,1,99.34,31Zm1,1.51a1,1,0,0,0-1-1.1,1.22,1.22,0,0,0-1.22,1.1Z"/><path class="cls-2" d="M101.88,31.67a.13.13,0,0,0-.15-.15h-.3V31.1h.5c.3,0,.43.12.43.4v.24c0,.15,0,.27,0,.27h0a1.22,1.22,0,0,1,1.13-.95,1,1,0,0,1,.19,0v.48l-.18,0a1.14,1.14,0,0,0-1,.93,2.3,2.3,0,0,0-.1.69v1.51h-.49Z"/><path class="cls-2" d="M104.58,31.67a.13.13,0,0,0-.15-.15h-.3V31.1h.49c.3,0,.44.12.44.39v.17a1.55,1.55,0,0,1,0,.25h0a1.53,1.53,0,0,1,1.42-.9c.88,0,1.19.51,1.19,1.39v1.69a.14.14,0,0,0,.16.16h.3v.42h-.5c-.31,0-.44-.13-.44-.44V32.52c0-.56-.08-1.05-.77-1.05a1.35,1.35,0,0,0-1.3,1,1.93,1.93,0,0,0-.06.49v1.71h-.48Z"/><path class="cls-2" d="M110.83,32.47h.2v0c0-.74-.27-1-.93-1-.17,0-.69,0-.69.31V32H109v-.35c0-.49.85-.6,1.16-.6,1.13,0,1.4.6,1.4,1.37v1.71a.14.14,0,0,0,.16.16H112v.42h-.49c-.3,0-.42-.14-.42-.43V34h0a1.25,1.25,0,0,1-1.18.77,1.11,1.11,0,0,1-1.22-1.06C108.64,32.51,110.21,32.47,110.83,32.47Zm-.9,1.87A1.25,1.25,0,0,0,111,33v-.16h-.21c-.56,0-1.68,0-1.68.82A.71.71,0,0,0,109.93,34.34Z"/><path class="cls-2" d="M112.85,31.5h-.47v-.4h.48v-1h.48v1h.89v.4h-.89v1.82c0,.83.53.94.8.94h.16v.43h-.21a1.15,1.15,0,0,1-1.24-1.32Z"/><path class="cls-2" d="M115.3,31.67a.13.13,0,0,0-.15-.15h-.3V31.1h.5c.31,0,.44.12.44.43v2.56c0,.11,0,.16.15.16h.3v.42h-.5c-.31,0-.44-.13-.44-.44Zm0-2h.47v.61h-.47Z"/><path class="cls-2" d="M118.67,31a1.87,1.87,0,1,1,0,3.74,1.87,1.87,0,1,1,0-3.74Zm0,3.31a1.41,1.41,0,0,0,1.38-1.46,1.39,1.39,0,1,0-2.77,0A1.42,1.42,0,0,0,118.68,34.32Z"/><path class="cls-2" d="M121.54,31.67a.13.13,0,0,0-.15-.15h-.3V31.1h.5c.29,0,.43.12.43.39v.17a1.55,1.55,0,0,1,0,.25h0a1.53,1.53,0,0,1,1.42-.9c.88,0,1.2.51,1.2,1.39v1.69c0,.11,0,.16.15.16h.3v.42h-.5c-.31,0-.44-.13-.44-.44V32.52c0-.56-.08-1.05-.77-1.05a1.36,1.36,0,0,0-1.3,1,1.94,1.94,0,0,0,0,.49v1.71h-.49Z"/><path class="cls-2" d="M127.79,32.47h.2v0c0-.74-.27-1-.92-1-.18,0-.7,0-.7.31V32h-.46v-.35c0-.49.85-.6,1.16-.6,1.13,0,1.4.6,1.4,1.37v1.71a.14.14,0,0,0,.16.16h.29v.42h-.48c-.31,0-.43-.14-.43-.43s0-.26,0-.26h0a1.25,1.25,0,0,1-1.18.77,1.11,1.11,0,0,1-1.22-1.06C125.6,32.51,127.17,32.47,127.79,32.47Zm-.89,1.87A1.24,1.24,0,0,0,128,33v-.16h-.21c-.56,0-1.68,0-1.68.82A.71.71,0,0,0,126.9,34.34Z"/><path class="cls-2" d="M129.76,30.25a.13.13,0,0,0-.15-.15h-.3v-.42h.5c.31,0,.44.13.44.43v4c0,.11.05.16.15.16h.3v.42h-.5c-.31,0-.44-.13-.44-.44Z"/></svg>